<?xml version="1.0" encoding="UTF-8"?>
<!-- Generator: Adobe Illustrator 16.0.0, SVG Export Plug-In . SVG Version: 6.00 Build 0)  -->
<!DOCTYPE svg PUBLIC "-//W3C//DTD SVG 1.1//EN" "http://www.w3.org/Graphics/SVG/1.1/DTD/svg11.dtd">
<svg version="1.1" id="Layer_1" xmlns="http://www.w3.org/2000/svg" xmlns:xlink="http://www.w3.org/1999/xlink" x="0px" y="0px" width="227px" height="275.303px" viewBox="-41.909 -36.073 227 275.303" enable-background="new -41.909 -36.073 227 275.303" xml:space="preserve">
<g>
	<g>
		<path fill="#3D3D27" d="M105.213,28.902c0.652-0.635,1.304-1.271,1.955-1.905c0.326-0.029,0.65-0.059,0.977-0.089    c4.492-0.305,6.838-4.892,11.14-5.577c4.494-3.476,8.815-2.258,13.237,0.296c4.297,2.481,8.637,4.896,12.379,8.172    c1.515,1.325,4.303,2.656,3.097,5.005c-1.354,2.633-3.787-0.095-5.754,0.033c-5.336-0.412-9.486-3.602-13.98-5.979    c-1.17-0.619-2.226-1.551-3.567-1.708c-2.42-0.284-4.367,0.937-5.278,2.943c-0.837,1.845,1.37,2.281,2.461,3.14    c3.743,2.941,8.396,4.74,11.187,8.884c2.346,3.143,4.379,1.258,6.471-0.366c0.771-0.6,1.935-1.264,2.583-0.381    c0.614,0.836-0.491,1.723-1.023,2.509c-1.312,0.577-1.714,1.54-2.07,2.99c-0.877,3.566-2.192,7.163-7.104,6.247    c-1.612-0.3-2.489,0.68-3.494,1.486c-1.554,1.249-2.864,2.921-4.589,3.815c-6.097,3.166-7.961,8.755-9.283,14.875    c-1.729,8.012,0.289,11.762,8.188,14.391c11.31,3.766,20.797,9.963,27.2,20.298c2.115,3.454,2.438,7.06,0.912,10.819    c-1.487,3.136-2.938,6.548-6.262,7.954c-4.779,2.025-4.076,6.555-5.418,10.172c-0.768,0.934-0.407,2.708-2.167,2.898    c-2.821,2.252-5.324,4.959-8.854,6.199c-4.325,1.227-8.65,0.796-12.976-0.01c-4.305,1.031-6.908-3.259-10.82-3.457    c-1.414-3.382-0.035-5.917,2.449-8.117c0.498-0.069,0.982,0.002,1.441,0.208c0.928,5.227,4.59,5.988,9.107,5.885    c4.676-0.107,9.278-0.112,13.022-3.491c1.59-1.435,3.256-2.745,2.421-5.416c-0.76-2.43,1.337-3.443,2.868-4.647    c1.316-1.385,1.92-2.861,0.606-4.599c-0.312-0.342-0.479-0.738-0.518-1.196c2.354-3.874,2.484-3.872,6.165,0.1    c4.013-3.902,4.066-8.117,0.054-12.949c-4.708-5.668-10.788-9.288-17.71-11.598c-1.577-0.526-3.194-0.924-4.78-1.428    c-10.493-3.34-14.146-8.345-14.146-20.056c-2.771,1.645-5.016,3.478-7.239,5.298c-5.924,4.854-12.23,9.188-18.449,13.641    c-1.841,1.317-3.701,2.982-6.335,2.104c-0.385-0.307-0.623-0.704-0.744-1.177c1.781-5.198,6.82-7.348,10.362-10.871    c3.853-3.833,8.446-6.886,12.231-10.828c1.492-1.266,2.26-3.367,4.402-3.885c1.514,0.542,1.761-1.078,2.661-1.595    c6.949-4.729,13.208-10.354,19.992-15.28c2.692-1.956,1.566-2.997-0.383-4.24c-4.393-3.534-7.783-8.216-12.76-11.063    c-2.232,0-4.637,0.501-6.035-1.997c-0.836-1.939,1.11-3.167,1.233-4.864C104.399,29.849,104.688,29.304,105.213,28.902z"/>
		<path fill="#3B3D28" d="M136.117,121.885c0.402,0.022,0.806,0.046,1.208,0.068c0.725,1.555-0.233,2.885-0.572,4.297    c-5.026,5.347-11.23,4.735-17.432,3.14c-3.431-0.884-6.117-1.712-6.634,3.275c-0.248,2.391-2.203,3.052-4.485,2.249    c-0.386-0.017-0.771-0.033-1.156-0.05c-12.195-2.068-23.972-5.217-34.187-13.55c-2.106,4.801-2.061,9.786-3.181,14.485    c-0.714,2.996-0.229,6.359-2.62,8.862c-2.036,9.92-4.373,19.789-5.056,29.938c-1.953,4.992-2.299,10.341-3.201,15.543    c-0.537,3.095-2.17,4.347-4.825,4.653c-7.064,0.819-14.128,1.201-20.948-1.525c-0.417-2.129,1.194-2.266,2.575-2.632    c0.842-0.111,1.679-0.048,2.505,0.114c3.558,0.94,7.114,1.192,10.657-0.078c3.36-0.793,4.839-2.989,5.326-6.351    c0.595-4.11,1.671-8.15,1.695-12.346c0.012-0.527,0.07-1.045,0.154-1.563c1.532-6.477,2.976-12.967,3.762-19.583    c0.55-5.741,3.309-11.301,1.395-17.239c-0.148-0.775-0.135-1.553,0.023-2.321c0.119-0.487,0.338-0.937,0.636-1.339    c1.958-0.938,2.035-2.837,2.338-4.619c1.588-9.322,3.648-18.557,5.226-27.884c0.402-1.236,1.179-2.159,2.321-2.774    c0.482-0.173,0.965-0.166,1.444,0.016c0.078,0.519,0.158,1.036,0.235,1.555c1.691,1.807,1.574,4.128,1.104,6.146    c-1.262,5.414,1.423,9.088,5.167,12.086c7.356,5.892,15.899,9.618,24.716,12.771c2.685,0.959,4.424-0.021,5.887-2.239    c1.589-2.409,4.052-4.169,6.771-3.105C123.45,124.417,129.732,124.435,136.117,121.885z"/>
		<path fill="#3D3C26" d="M1.967,6.839c0.135-0.287,0.156-0.583,0.062-0.886c7.808-4.634,16.498-5.563,25.296-5.95    c1.652-0.071,2.51,1.081,3.09,2.688c1.412,3.909,2.272,8.136,6.827,10.134c1.724,0.757,1.834,2.999,1.496,4.906    c-2.039,2.521,0.616,4.085,1.341,5.964c0.979,2.541,2.386,4.917,3.609,7.363c2.563,1.564,2.266,4.585,3.478,6.837    c4.298,9.348,8.596,18.694,12.893,28.042c0.4,0.341,0.568,0.775,0.536,1.297c-0.378,1.416-0.452,3.138-2.69,2.703    c-4.066-7.372-8.117-14.765-11.877-22.297c-3.693-7.4-7.759-14.607-11.315-22.079c-1.465-3.076-3.21-6.038-7.528-4.429    C22,22.127,16.905,23.444,11.949,25.264c-1.37,0.358-2.732,0.508-4.037-0.244c-2.701,0.925-4.989,0.507-5.935-2.45    c-0.826-2.582-4.267-5.391,0.483-7.843c1.578-0.814-0.041-2.312-0.146-3.501c0.128-0.335,0.418-0.746,0.582-0.663    c6.369,3.235,12.966,1.524,19.505,0.928c1.347-0.252,3.624,0.576,3.806-1.066c0.25-2.271-2.574-1.925-3.943-2.889    c-0.971-0.585-1.544-1.586-2.396-2.294C14.271,4.376,9.262,6.434,4.222,8.352C3.134,8.347,2.336,7.911,1.967,6.839z"/>
		<path fill="#E9DEAA" d="M133.063,42.115c-4.942-3.257-9.854-6.562-14.846-9.74c-1.637-1.041-1.982-1.752-0.477-3.315    c3.176-3.301,5.887-5.528,10.675-1.797c4.093,3.188,9.181,5.1,13.828,7.575C136.895,34.375,135.137,38.445,133.063,42.115z"/>
		<path fill="#4C491C" d="M36.486,191.73c-1.273,0.24-2.719,0.1-3.458,1.541c-4.899-1.518-9.728-3.193-13.844-6.406    c-0.195-0.993,0.421-1.407,1.208-1.703C26.04,186.654,31.876,187.691,36.486,191.73z"/>
		<path fill="#605C2D" d="M20.371,185.784c-0.396,0.36-0.792,0.721-1.188,1.081c-4.48-1.94-6.521-5.024-4.014-9.708    c0.978-1.826-0.677-3.888,0.938-5.459c0.908-0.102,1.765-0.289,2.127-1.288c1.107,0.993,1.409,2.396,1.007,3.62    C17.882,178.157,18.496,182.01,20.371,185.784z"/>
		<path fill="#EFEFE9" d="M139.172,136.925"/>
		<path fill="#EFEFE9" d="M137.005,139.824"/>
		<path fill="#EFEFE9" d="M150.852,118.799c0.931-3.711,0.338-7.294-0.912-10.819C153.092,111.345,153.069,114.98,150.852,118.799z"/>
		<path fill="#EFEFE9" d="M47.165,37.894c-1.159-2.279-2.317-4.559-3.478-6.837C47.536,31.968,47.204,35.005,47.165,37.894z"/>
		<path fill="#EBE1A8" d="M20.371,185.784c-3.727-2.291-5.143-5.183-3.104-9.512c0.81-1.718,0.674-3.881,0.968-5.854    c0.312-0.661,0.623-1.312,0.936-1.962c0.7-6.97,3.207-13.479,5.135-20.135c5.218-18.015,11.155-35.82,15.697-54.031    c0.981-3.939,0.893-7.051-2.069-10.85c-4.589-5.887-6.329-13.421-7.168-20.95c-0.091-3.273-0.036-6.545-0.055-9.812    c0.474-7.056-3.549-12.71-5.908-18.882c-0.627-2.475-2.694-4.358-2.904-7.011c-0.016-1.653-0.084-3.492,1.771-4.165    c1.857-0.675,3.004,0.775,4.034,2.064c1.033,1.295,2.126,2.481,3.821,2.886c4.884,3.026,6.111,8.608,8.378,13.174    c4.271,8.604,9.706,16.578,13.438,25.443c1.07,2.542,3.461,3.985,4.98,6.146c0.2,0.466,0.063,0.984,0.15,1.437    c0.2,1.037,0.517-0.032,0.586-0.085c14.821-11.282,29.402-22.872,44.147-34.25c1.834-1.415,4.062-2.157,5.994-3.409    c4.868,3.349,9.747,6.686,12.899,11.895c-0.266,1.854-1.728,2.553-3.152,3.29c-2.299,1.26-4.358,2.848-6.275,4.631    c-5.003,3.837-7.517,9.976-12.655,13.68c-1.199,1.594-2.397,3.188-3.599,4.782c-5.071,1.846-8.116,6.372-12.317,9.392    c-3.709,2.666-6.593,6.418-10.684,8.684c-0.939,0.521-1.154,1.546-1.263,2.555c-0.346,0.983-1.098,1.555-2.006,1.965    c-3.176,3.276-2.725,7.619-3.417,11.627c-0.999,5.776-0.963,11.776-3.682,17.183c-1.343,0.948-2.074,0.297-2.559-0.996    c-0.745-1.984-1.26-4.061-2.142-5.483c1.208,3.624,3.473,7.413,3.701,11.842c0.021,0.616,0.044,1.231,0.065,1.849    c0.557,7.134-1.554,13.694-4.322,20.117c-2.606,2.856-5.944,5.386-4.45,10.057c0.18,1.145,0.213,2.296,0.137,3.45    c-1.199,3.501,0.497,4.921,3.75,5.229c0.342,5.709-1.792,11.085-2.242,16.698c-0.288,3.604-3.805,2.434-5.825,3.483    c-3.671,0.682-7.341,0.742-11.005-0.047c-0.559-0.059-1.115-0.117-1.673-0.176C30.979,190.115,25.474,188.495,20.371,185.784z"/>
		<path fill="#413C1D" d="M109.198,36.027C91.832,50.479,73.875,64.154,55.353,77.712c-0.513-2.941,2.769-2.824,2.594-4.89    c0.097-1.009-1.16-2.35,0.716-2.924c0.438-0.982,0.875-1.965,1.312-2.948c0.784,1.695,1.258,3.613,3.745,1.396    c9.154-8.157,18.424-16.186,27.65-24.261c3.905-3.071,7.812-6.145,11.719-9.217C104.816,36.891,107.258,35.133,109.198,36.027z"/>
		<path fill="#EEEDD9" d="M118.226,49.92c1.723,0.169,2.61-1.277,3.872-1.999c2.082-0.272,3.334,1.133,5.412,2.661    c-9.059,5.664-15.99,13.53-25.301,18.249c1.584-5.873,6.609-9.067,10.329-13.278C114.463,53.705,116.788,52.26,118.226,49.92z"/>
		<path fill="#EEE8C5" d="M72.153,94.932c-1.835-2.162-0.301-2.879,1.396-4.062c6.562-4.574,12.729-9.618,18.022-15.699    c1.056-1.212,2.954-2.136,4.846-0.868c-7.776,6.789-15.554,13.578-23.329,20.368C72.752,94.675,72.441,94.762,72.153,94.932z"/>
		<path fill="#5A5433" d="M113.108,55.882c-3.259,4.632-8.133,7.902-10.897,12.949c-0.55,0.808-0.874,2.335-2.195,0.689    c3.057-5.693,7.154-10.52,12.162-14.585C112.625,55.116,112.928,55.437,113.108,55.882z"/>
		<path fill="#D9D8C2" d="M144.439,32.687c-5.627-1.337-10.246-4.222-14.135-8.334C135.909,25.611,140.213,29.158,144.439,32.687z"/>
		<path fill="#F7F7E1" d="M62.115,125.919c2.504-8.228,2.763-16.818,4-25.248c0.389-2.646,1.329-3.96,4.031-3.773    c0.836,4.196-0.994,8.065-1.59,12.075c-1.003,6.735-2.438,13.406-3.669,20.109c-0.396,2.162-1.271,2.391-2.706,0.769    C61.443,128.552,61.147,127.247,62.115,125.919z"/>
		<path fill="#E2DAAE" d="M52.144,166.356c-0.001-0.965-0.001-1.931-0.002-2.896c-0.02-4.489,1.489-8.095,5.829-10.055    c0.938-0.913,1.178-2.688,3.035-2.477c-1.162,6.671-1.433,13.517-3.909,19.931C51.925,173.229,53.217,168.493,52.144,166.356z"/>
		<path fill="#ECE9CA" d="M61.005,150.93c-0.652,1.012-1.305,2.022-1.958,3.034c-0.998,0.337-1.549-0.146-1.887-1.024    c-0.477-4.926,3.072-8.716,3.808-13.38c0.343-2.182-2.298-5.039,1.146-6.645c2.763,3.909,0.512,7.858,0.051,11.776    C61.917,146.789,61.4,148.852,61.005,150.93z"/>
		<path fill="#5B5523" d="M62.115,125.919c0.021,1.311,0.044,2.62,0.066,3.932c-0.044,0.405-0.088,0.812-0.133,1.218    c-1.905-4.929-3.809-9.856-5.713-14.785C60.249,118.402,59.938,122.867,62.115,125.919z"/>
		<path fill="#928A59" d="M52.144,166.356c1.082,2.127,1.226,5.286,4.953,4.505c0.196,0.281,0.241,0.584,0.134,0.91    C52.078,173.215,50.868,171.926,52.144,166.356z"/>
		<path fill="#4C491C" d="M38.157,191.906c3.668,0.016,7.336,0.031,11.005,0.047C45.487,193.473,41.819,193.542,38.157,191.906z"/>
		<path fill="#403C1F" d="M32.211,62.899c1.471,5.776,2.098,11.844,5.324,17.036c1.083,1.742,0.375,5.291,4.393,4.598    c0.78-0.134,0.985,1.992,0.817,3.113c-0.417,2.79-0.847,5.6-1.578,8.317c-6.566,24.396-13.795,48.594-21.998,72.493    c-2.334-2.541-0.28-5.154,0.284-7.433c5.425-21.942,10.436-43.997,16.968-65.647c0.961-3.186,0.508-5.655-0.785-8.514    c-9.316-20.581-18.5-41.222-27.727-61.845c1.021-0.535,2.051-0.87,3.118-0.108c4.088,1.965,4.31,6.636,6.816,9.708    c0.616,1.243,0.649,2.703,1.448,3.881c1.599,3.502,2.789,7.222,5.416,10.18c1.247,4.974,4.818,9.05,5.527,14.238    c0.09,0.654,0.4,1.063,0.272,0.417c-0.047-0.238,0.354-0.515,0.643-0.723C31.582,62.464,31.927,62.574,32.211,62.899z"/>
		<path fill="#E1DCA9" d="M23.167,12.743c-3.447,0.375-6.89,0.788-10.34,1.113c-3.479,0.328-7.369,1.767-9.162-3.067    c-0.007-0.019-0.879,0.284-1.349,0.438C1.935,10.444,1.552,9.662,1.17,8.88c5.996-1.521,12.083-2.233,18.272-2.072    C21.736,8.122,24.37,9.233,23.167,12.743z"/>
		<path fill="#3A340E" d="M20.101,7.792C13.787,8.086,7.578,10.216,1.17,8.88C1.017,8.036,0.739,7.143,1.967,6.839    c0.797,0.322,1.594,0.646,2.391,0.968C9.843,6.026,15.5,4.998,21.155,3.96c0.328,0.913,0.655,1.826,0.982,2.739    C21.8,7.702,21.006,7.85,20.101,7.792z"/>
		<path fill="#E5DDAA" d="M17.146,35.039c-3.249-2.646-3.628-7.022-6.116-10.128c4.839-3.443,10.638-3.811,16.163-5.054    c3.253,2.157,5.21,4.892,4.024,9.026c-2.229-0.056-3.309-1.764-4.58-3.191c-0.784-0.881-1.014-2.832-2.687-2.096    c-1.366,0.602-0.604,2.312-0.877,3.512c-0.777,3.104,2.454,4.772,2.691,7.52c2.928,5.764,5.456,11.649,5.884,18.219    c-0.181,3.351,0.42,6.723-0.354,10.048c-0.603,0.409-0.519,2.423-0.873,1.616c-2.268-5.14-6.123-9.699-6.229-15.688    c-0.564-0.987-0.471-2.127-0.751-3.185C22.931,41.157,18.984,38.722,17.146,35.039z"/>
		<path fill="#F8F6ED" d="M31.217,28.884c-0.688-3.301-2.704-6.009-4.024-9.025c3.574-2.072,5.679-1.253,7.616,2.651    c7.133,14.375,14.658,28.558,21.998,42.83c0.748,1.453,1.243,3.036,1.855,4.56c0.52,1.16,0.358,2.154-0.716,2.924    c-3.742-1.638-5.299-4.817-7.017-8.387c-4.3-8.938-9.085-17.669-14.159-26.195C34.922,35.132,34.699,31.007,31.217,28.884z"/>
		<path fill="#C6C2A5" d="M21.155,3.96C15.923,6.843,10.256,7.829,4.358,7.806C9.308,3.687,15.114,3.309,21.155,3.96z"/>
		<path fill="#E3E2D4" d="M20.101,7.792c0.295-1.079,1.309-0.82,2.037-1.092c1.651,0.595,3.803-1.1,5.064,0.884    c0.857,1.351,2.525,3.121,1.562,4.446c-1.229,1.688-3.667,0.681-5.597,0.713C23.087,10.508,20.806,9.638,20.101,7.792z"/>
		<path fill="#635A2E" d="M31.019,51.934c-1.305-6.201-3.574-12.082-5.953-17.927c-0.502-1.067,0.06-1.166,0.911-0.999    c2.775,6.063,6.142,11.937,6.172,18.896C31.788,52.494,31.411,52.503,31.019,51.934z"/>
		<path fill="#645A29" d="M46.97,164.851c0.017,5.556,0.446,11.064,2.062,16.445c-3.935-6.547-4.575-13.534-3.09-20.812    C47.402,161.676,46.119,163.515,46.97,164.851z"/>
		<path fill="#6E6939" d="M57.161,152.94c0.629,0.342,1.257,0.684,1.886,1.023c-4.97,1.227-5.326,5.807-6.906,9.496    C50.589,158.939,52.146,155.677,57.161,152.94z"/>
		<path fill="#5E5626" d="M46.97,164.851c-1.193-1.256-0.617-2.928-1.026-4.367c-0.33-2.851,1.011-5.165,2.391-7.467    c0.843-0.12,1.339,0.087,1.014,1.07C47.635,157.473,47.202,161.14,46.97,164.851z"/>
		<path fill="#59522C" d="M113.108,55.882c-0.311-0.314-0.621-0.631-0.932-0.945c1.566-2.214,3.804-3.62,6.049-5.018    C118.233,53.378,114.911,53.977,113.108,55.882z"/>
		<path fill="#867B52" d="M25.978,33.009c-0.304,0.333-0.606,0.666-0.911,0.999c-1.224-2.107-2.884-4.086-3.562-6.355    c-0.877-2.936,0.93-0.586,1.569-0.545C24.041,29.075,25.009,31.042,25.978,33.009z"/>
		<path fill="#877F4C" d="M49.347,154.088c-0.338-0.356-0.676-0.715-1.014-1.07c1.015-2.386,2.97-3.688,5.641-4.302    C52.432,150.507,50.89,152.298,49.347,154.088z"/>
		<path fill="#443C0E" d="M31.019,51.934c0.377-0.011,0.754-0.021,1.131-0.029c0.021,3.665,0.041,7.329,0.062,10.994    c-0.305-0.002-0.611-0.004-0.917-0.006C30.651,59.253,30.804,55.594,31.019,51.934z"/>
		<path fill="#CAC8A1" d="M24.168,46.062c0.632,0.914,0.81,1.833,0.024,2.76c-4.123-2.037-3.977-6.775-6.3-9.951    c0.226-1.626,1.211-1.266,1.961-0.584C22.155,40.375,23.895,42.826,24.168,46.062z"/>
		<path fill="#585225" d="M24.168,46.062c-2.164-2.334-1.869-6.813-6.275-7.191c-1.205-1.092-0.683-2.52-0.748-3.832    C20.814,37.868,25.244,40.211,24.168,46.062z"/>
	</g>
</g>
</svg>